:FULLY-SPECIFIED
:FORCE-ALL-JOINTS-BE-3DOF
:DEGREES
34
root 5.97543 16.9087 -28.0708 9.97075 -1.99716 -2.09261
lfemur -19.3233 0.58169 -19.983
ltibia 32.7255 -0 0
lfoot -36.6688 5.36103 0.148088
ltoes 36.2319 -0 0
rfemur -16.8165 6.8263 19.3809
rtibia 30.5138 -0 0
rfoot -27.4081 -18.4753 0.00687988
rtoes 14.3062 -0 0
lowerback -5.56356 2.42857 -1.06034
upperback -1.88853 3.28385 0.720489
thorax 1.0706 1.6444 1.53893
lowerneck -9.55593 -1.56347 2.77647
upperneck -2.60586 -2.36079 0.679485
head 0.751983 -1.18648 -0.332688
lclavicle 7.08792e-014 1.55052e-014 0
lhumerus -41.5861 -12.5416 96.8286
lradius 38.5416 -0 0
lwrist 5.59313 0 0
lhand -11.6495 3.99121 0.00101245
lfingers 7.12502 -0 0
lthumb 14.3947 33.4719 0.000931571
rclavicle 7.08792e-014 1.55052e-014 0
rhumerus -40.6022 -5.44551 -88.8308
rradius 39.0445 -0 0
rwrist 11.0293 0 0
rhand -27.0734 -19.9602 0.00546296
rfingers 7.12502 -0 0
rthumb -0.49098 -49.9411 0.00524587
35
root 5.96812 16.909 -28.0719 9.99398 -1.98474 -2.05734
lfemur -19.3134 0.523212 -19.9947
ltibia 32.6669 -0 0
lfoot -36.6297 5.41307 0.154116
ltoes 36.1003 -0 0
rfemur -16.8273 6.8183 19.3663
rtibia 30.4913 -0 0
rfoot -27.3696 -18.514 0.00580821
rtoes 14.0075 -0 0
lowerback -5.61993 2.40561 -0.96786
upperback -1.87117 3.2499 0.634831
thorax 1.13063 1.62632 1.40071
lowerneck -9.54408 -1.54657 2.8168
upperneck -2.6318 -2.34218 0.751539
head 0.742171 -1.17668 -0.316136
lclavicle 7.08792e-014 1.55052e-014 0
lhumerus -41.5742 -12.6261 96.7868
lradius 38.7669 -0 0
lwrist 5.74074 0 0
lhand -11.6886 3.91481 0.00110559
lfingers 7.12502 -0 0
lthumb 14.3571 33.3981 0.00102487
rclavicle 7.08792e-014 1.55052e-014 0
rhumerus -40.5507 -5.46143 -88.9509
rradius 38.9883 -0 0
rwrist 11.0476 0 0
rhand -27.0404 -20.0025 0.00495173
rfingers 7.12502 -0 0
rthumb -0.45911 -49.9832 0.0047556
36
root 5.96103 16.9089 -28.0731 10.0177 -1.96519 -2.02602
lfemur -19.3281 0.490459 -20.0007
ltibia 32.6432 -0 0
lfoot -36.5687 5.43257 0.155778
ltoes 35.9711 -0 0
rfemur -16.8399 6.79508 19.3557
rtibia 30.4725 -0 0
rfoot -27.3336 -18.5463 0.00468372
rtoes 13.6856 -0 0
lowerback -5.66975 2.38394 -0.873338
upperback -1.85389 3.21737 0.551706
thorax 1.18668 1.60914 1.2637
lowerneck -9.53334 -1.53189 2.85408
upperneck -2.66092 -2.32615 0.822443
head 0.731562 -1.16821 -0.299505
lclavicle 7.08792e-014 1.55052e-014 0
lhumerus -41.5607 -12.7079 96.7438
lradius 38.9914 -0 0
lwrist 5.88494 0 0
lhand -11.7252 3.84104 0.00116142
lfingers 7.12502 -0 0
lthumb 14.3218 33.3269 0.00108333
rclavicle 7.08792e-014 1.55052e-014 0
rhumerus -40.5004 -5.46568 -89.0702
rradius 38.94 -0 0
rwrist 11.0584 0 0
rhand -27.0035 -20.048 0.00437798
rfingers 7.12502 -0 0
rthumb -0.423482 -50.0286 0.00420525
37
root 5.95419 16.9086 -28.0745 10.0419 -1.93731 -1.99935
lfemur -19.3712 0.487664 -20
ltibia 32.6597 -0 0
lfoot -36.482 5.41415 0.152396
ltoes 35.8453 -0 0
rfemur -16.8535 6.75614 19.3502
rtibia 30.4565 -0 0
rfoot -27.2999 -18.5731 0.0035595
rtoes 13.3375 -0 0
lowerback -5.71242 2.36364 -0.776174
upperback -1.83665 3.18633 0.47154
thorax 1.23852 1.59287 1.12798
lowerneck -9.52392 -1.51973 2.88767
upperneck -2.69384 -2.313 0.891995
head 0.720001 -1.1612 -0.282756
lclavicle 7.08792e-014 1.55052e-014 0
lhumerus -41.5455 -12.7863 96.699
lradius 39.2139 -0 0
lwrist 6.02478 0 0
lhand -11.7589 3.76944 0.00117337
lfingers 7.12502 -0 0
lthumb 14.2894 33.2576 0.00110031
rclavicle 7.08792e-014 1.55052e-014 0
rhumerus -40.4514 -5.45636 -89.1888
rradius 38.9012 -0 0
rwrist 11.0607 0 0
rhand -26.9633 -20.0961 0.00376067
rfingers 7.12502 -0 0
rthumb -0.384704 -50.0766 0.00361296
38
root 5.94764 16.9079 -28.076 10.0669 -1.89991 -1.97802
lfemur -19.4465 0.519068 -19.9917
ltibia 32.7218 -0 0
lfoot -36.3659 5.35243 0.143356
ltoes 35.7237 -0 0
rfemur -16.8676 6.70101 19.3503
rtibia 30.4427 -0 0
rfoot -27.2684 -18.5952 0.00249046
rtoes 12.9602 -0 0
lowerback -5.74737 2.34478 -0.675767
upperback -1.8194 3.15685 0.394757
thorax 1.28592 1.57755 0.993665
lowerneck -9.51602 -1.51036 2.91693
upperneck -2.73119 -2.30306 0.959997
head 0.707332 -1.15583 -0.265847
lclavicle 7.08792e-014 1.55052e-014 0
lhumerus -41.5283 -12.8606 96.6517
lradius 39.4333 -0 0
lwrist 6.15927 0 0
lhand -11.7891 3.6995 0.00113512
lfingers 7.12502 -0 0
lthumb 14.2603 33.1898 0.00106942
rclavicle 7.08792e-014 1.55052e-014 0
rhumerus -40.4037 -5.43159 -89.3066
rradius 38.8733 -0 0
rwrist 11.0532 0 0
rhand -26.9206 -20.1463 0.00311738
rfingers 7.12502 -0 0
rthumb -0.343387 -50.1267 0.00299559
39
root 5.9414 16.9069 -28.0775 10.0927 -1.8518 -1.96272
lfemur -19.5579 0.588931 -19.9748
ltibia 32.8346 -0 0
lfoot -36.2167 5.24203 0.128136
ltoes 35.6071 -0 0
rfemur -16.8817 6.62921 19.357
rtibia 30.4302 -0 0
rfoot -27.2392 -18.6136 0.00153321
rtoes 12.5508 -0 0
lowerback -5.77401 2.32744 -0.571515
upperback -1.8021 3.12896 0.321784
thorax 1.32866 1.5632 0.860844
lowerneck -9.50986 -1.50408 2.94121
upperneck -2.77359 -2.29662 1.02625
head 0.693402 -1.15225 -0.248739
lclavicle 7.08792e-014 1.55052e-014 0
lhumerus -41.5089 -12.9301 96.6012
lradius 39.6485 -0 0
lwrist 6.28744 0 0
lhand -11.8154 3.63076 0.00104072
lfingers 7.12502 -0 0
lthumb 14.2349 33.1228 0.000984519
rclavicle 7.08792e-014 1.55052e-014 0
rhumerus -40.3572 -5.38949 -89.4237
rradius 38.8577 -0 0
rwrist 11.035 0 0
rhand -26.8758 -20.198 0.00246404
rfingers 7.12502 -0 0
rthumb -0.30014 -50.1783 0.00236837
40
root 5.9355 16.9055 -28.0792 10.1195 -1.79178 -1.95413
lfemur -19.709 0.701533 -19.9484
ltibia 33.0036 -0 0
lfoot -36.0305 5.07753 0.106337
ltoes 35.4964 -0 0
rfemur -16.895 6.54025 19.3711
rtibia 30.4183 -0 0
rfoot -27.2119 -18.6291 0.000745749
rtoes 12.1062 -0 0
lowerback -5.79177 2.31169 -0.46282
upperback -1.7847 3.10274 0.253046
thorax 1.36651 1.54984 0.729618
lowerneck -9.50565 -1.50117 2.95989
upperneck -2.82168 -2.29399 1.09055
head 0.678053 -1.15062 -0.231389
lclavicle 7.08792e-014 1.55052e-014 0
lhumerus -41.4872 -12.9939 96.547
lradius 39.8584 -0 0
lwrist 6.40833 0 0
lhand -11.8374 3.56272 0.000884604
lfingers 7.12502 -0 0
lthumb 14.2137 33.0563 0.0008399
rclavicle 7.08792e-014 1.55052e-014 0
rhumerus -40.3119 -5.32817 -89.5401
rradius 38.8558 -0 0
rwrist 11.0051 0 0
rhand -26.8296 -20.2506 0.00181468
rfingers 7.12502 -0 0
rthumb -0.255572 -50.2307 0.00174474
41
root 5.92997 16.9037 -28.081 10.1473 -1.71865 -1.95296
lfemur -19.9036 0.86118 -19.9119
ltibia 33.2339 -0 0
lfoot -35.8034 4.85351 0.077711
ltoes 35.3926 -0 0
rfemur -16.9071 6.43366 19.3934
rtibia 30.4061 -0 0
rfoot -27.1867 -18.6427 0.000187352
rtoes 11.6235 -0 0
lowerback -5.80005 2.29759 -0.349079
upperback -1.76717 3.07824 0.188968
thorax 1.39925 1.5375 0.600086
lowerneck -9.5036 -1.50192 2.97231
upperneck -2.87607 -2.29547 1.15271
head 0.661131 -1.1511 -0.213758
lclavicle 7.08792e-014 1.55052e-014 0
lhumerus -41.463 -13.0514 96.4882
lradius 40.0618 -0 0
lwrist 6.52096 0 0
lhand -11.8546 3.49492 0.000661793
lfingers 7.12502 -0 0
lthumb 14.1972 32.9897 0.000630394
rclavicle 7.08792e-014 1.55052e-014 0
rhumerus -40.2679 -5.24573 -89.6559
rradius 38.8691 -0 0
rwrist 10.9622 0 0
rhand -26.7827 -20.3034 0.00118132
rfingers 7.12502 -0 0
rthumb -0.210294 -50.2833 0.00113619
42
root 5.92483 16.9014 -28.0829 10.1763 -1.63121 -1.95987
lfemur -20.1454 1.07221 -19.8647
ltibia 33.531 -0 0
lfoot -35.5318 4.56452 0.0422055
ltoes 35.2964 -0 0
rfemur -16.9174 6.30896 19.4246
rtibia 30.3928 -0 0
rfoot -27.1633 -18.6552 -8.16454e-005
rtoes 11.0997 -0 0
lowerback -5.79828 2.2852 -0.22969
upperback -1.74945 3.05553 0.129976
thorax 1.42665 1.52619 0.472346
lowerneck -9.50392 -1.50661 2.97784
upperneck -2.9374 -2.30138 1.21254
head 0.642481 -1.15384 -0.195803
lclavicle 7.08792e-014 1.55052e-014 0
lhumerus -41.4361 -13.1018 96.4244
lradius 40.2577 -0 0
lwrist 6.62435 0 0
lhand -11.8664 3.42687 0.000368029
lfingers 7.12502 -0 0
lthumb 14.1858 32.9225 0.000351576
rclavicle 7.08792e-014 1.55052e-014 0
rhumerus -40.2251 -5.14029 -89.771
rradius 38.8989 -0 0
rwrist 10.9055 0 0
rhand -26.7358 -20.3559 0.000573844
rfingers 7.12502 -0 0
rthumb -0.164914 -50.3357 0.000552147
43
root 5.92012 16.8987 -28.0848 10.2066 -1.52826 -1.97555
lfemur -20.438 1.339 -19.8065
ltibia 33.9 0 0
lfoot -35.2116 4.20509 0
ltoes 35.2088 0 0
rfemur -16.9253 6.16566 19.4656
rtibia 30.3778 0 0
rfoot -27.1417 -18.6675 0
rtoes 10.5318 0 0
lowerback -5.78587 2.27459 -0.104052
upperback -1.73151 3.03465 0.0764956
thorax 1.44849 1.51594 0.346495
lowerneck -9.50682 -1.51554 2.97584
upperneck -3.00629 -2.31202 1.26983
head 0.621946 -1.159 -0.177483
lclavicle -2.5842e-015 6.16232e-015 0
lhumerus -41.4063 -13.1444 96.3548
lradius 40.4448 0 0
lwrist 6.71755 0 0
lhand -11.8725 3.35808 0
lfingers 7.12502 0 0
lthumb 14.1799 32.8541 0
rclavicle -2.5842e-015 6.16232e-015 0
rhumerus -40.1835 -5.00997 -89.8855
rradius 38.9467 0 0
rwrist 10.8337 0 0
rhand -26.6893 -20.4074 0
rfingers 7.12502 0 0
rthumb -0.120043 -50.3871 0
